<svg width="20" height="20" viewBox="0 0 20 20" fill="none" xmlns="http://www.w3.org/2000/svg">
<path fill-rule="evenodd" clip-rule="evenodd" d="M16.0714 1.42857C14.6907 1.42857 13.5714 2.54786 13.5714 3.92857C13.5714 4.2 13.6143 4.46073 13.6936 4.70359C14.02 5.70573 14.9621 6.42857 16.0714 6.42857C17.4521 6.42857 18.5714 5.30929 18.5714 3.92857C18.5714 2.54786 17.4521 1.42857 16.0714 1.42857ZM12.1429 3.92857C12.1429 1.75857 13.9014 0 16.0714 0C18.2414 0 20 1.75857 20 3.92857C20 6.09857 18.2414 7.85714 16.0714 7.85714C14.6179 7.85714 13.35 7.06788 12.67 5.89573L7.65714 8.40642C7.93572 9.2557 7.91715 10.1864 7.605 11.0243L13.0379 13.575C13.7579 12.7014 14.8493 12.1429 16.0714 12.1429C18.2414 12.1429 20 13.9014 20 16.0714C20 18.2414 18.2414 20 16.0714 20C13.9014 20 12.1429 18.2414 12.1429 16.0714C12.1429 15.6371 12.2136 15.2186 12.3443 14.8271L6.86358 12.2543C6.14501 13.0614 5.09643 13.5714 3.92857 13.5714C1.75857 13.5714 0 11.8129 0 9.64286C0 7.47286 1.75857 5.71429 3.92857 5.71429C5.15429 5.71429 6.24786 6.27572 6.96786 7.15358L12.19 4.53857C12.1593 4.33929 12.1429 4.13571 12.1429 3.92857ZM3.92857 7.14286C2.54786 7.14286 1.42857 8.26214 1.42857 9.64286C1.42857 11.0236 2.54786 12.1429 3.92857 12.1429C4.81643 12.1429 5.59715 11.6807 6.04143 10.98C6.52643 10.215 6.55356 9.2093 6.10999 8.42002C5.6807 7.65645 4.86429 7.14286 3.92857 7.14286ZM16.0714 13.5714C15.1429 13.5714 14.3314 14.0772 13.9 14.8322C13.6907 15.1964 13.5714 15.6193 13.5714 16.0714C13.5714 17.4521 14.6907 18.5714 16.0714 18.5714C17.4521 18.5714 18.5714 17.4521 18.5714 16.0714C18.5714 14.6907 17.4521 13.5714 16.0714 13.5714Z" fill="white"/>
</svg>
