<svg width="43" height="43" viewBox="0 0 43 43" fill="none" xmlns="http://www.w3.org/2000/svg">
<path d="M19.7085 30.4583H23.2918V19.7083H19.7085V30.4583ZM21.5002 3.58331C11.6102 3.58331 3.5835 11.61 3.5835 21.5C3.5835 31.39 11.6102 39.4166 21.5002 39.4166C31.3902 39.4166 39.4168 31.39 39.4168 21.5C39.4168 11.61 31.3902 3.58331 21.5002 3.58331ZM21.5002 35.8333C13.5989 35.8333 7.16683 29.4012 7.16683 21.5C7.16683 13.5987 13.5989 7.16665 21.5002 7.16665C29.4014 7.16665 35.8335 13.5987 35.8335 21.5C35.8335 29.4012 29.4014 35.8333 21.5002 35.8333ZM19.7085 16.125H23.2918V12.5416H19.7085V16.125Z" fill="black" fill-opacity="0.87"/>
</svg>
