<svg width="20" height="20" viewBox="0 0 20 20" fill="none" xmlns="http://www.w3.org/2000/svg">
<path d="M10.3834 18.9584C10.2417 18.9584 10.1 18.9584 9.95837 18.9501C5.2917 18.7418 1.3917 14.9834 1.0667 10.4001C0.783372 6.46676 3.05837 2.79176 6.72504 1.2501C7.7667 0.816762 8.31671 1.1501 8.55004 1.39176C8.78337 1.6251 9.10837 2.16676 8.67504 3.15843C8.2917 4.04176 8.10004 4.98343 8.10837 5.9501C8.12504 9.64176 11.1917 12.7751 14.9334 12.9251C15.475 12.9501 16.0084 12.9084 16.525 12.8168C17.625 12.6168 18.0834 13.0584 18.2584 13.3418C18.4334 13.6251 18.6334 14.2334 17.9667 15.1334C16.2 17.5501 13.3917 18.9584 10.3834 18.9584ZM2.30837 10.3084C2.5917 14.2751 5.97504 17.5251 10.0084 17.7001C12.75 17.8334 15.35 16.5834 16.95 14.4001C17.075 14.2251 17.1334 14.1001 17.1584 14.0334C17.0834 14.0251 16.95 14.0168 16.7417 14.0584C16.1334 14.1668 15.5 14.2084 14.875 14.1834C10.475 14.0084 6.87504 10.3168 6.85004 5.96676C6.85004 4.81676 7.07504 3.70843 7.53337 2.66676C7.6167 2.48343 7.63337 2.35843 7.6417 2.29176C7.5667 2.29176 7.43337 2.30843 7.2167 2.4001C4.0417 3.73343 2.07504 6.91676 2.30837 10.3084Z" fill="#292D32"/>
</svg>
