<svg width="24" height="24" viewBox="0 0 24 24" fill="none" xmlns="http://www.w3.org/2000/svg">
<g clip-path="url(#clip0_60_3951)">
<path fill-rule="evenodd" clip-rule="evenodd" d="M16.2256 7.71432L13.7658 1.15715C13.6029 0.71144 13.8256 0.22294 14.2713 0.0515109C14.7171 -0.111346 15.2056 0.111482 15.3771 0.557196L17.9485 7.41434C17.9828 7.50862 18 7.61146 18 7.71432H21.42C21.42 7.71432 21.4286 7.71432 21.4371 7.71432H23.1429C23.6143 7.71432 24 8.10004 24 8.57146C24 9.04293 23.6143 9.42864 23.1429 9.42864H22.2085L21.1371 20.1429C20.9228 22.3286 19.0799 24.0001 16.8771 24.0001H7.12291C4.92005 24.0001 3.07722 22.3286 2.86293 20.1429L1.79151 9.42864H0.857143C0.385714 9.42864 0 9.04293 0 8.57146C0 8.10004 0.385714 7.71432 0.857143 7.71432H6C6 7.61146 6.01719 7.50862 6.05148 7.41434L8.62294 0.557196C8.79437 0.111482 9.28294 -0.111346 9.72866 0.0515109C10.1744 0.22294 10.3971 0.71144 10.2342 1.15715L7.77435 7.71432H16.2256ZM4.56864 19.9715L3.51437 9.42864H20.4856L19.4313 19.9715C19.3028 21.2829 18.1971 22.2858 16.8771 22.2858H7.12291C5.80291 22.2858 4.69721 21.2829 4.56864 19.9715Z" fill="white"/>
</g>
<defs>
<clipPath id="clip0_60_3951">
<rect width="24" height="24" fill="white"/>
</clipPath>
</defs>
</svg>
