<svg width="43" height="44" viewBox="0 0 43 44" fill="none" xmlns="http://www.w3.org/2000/svg">
<path d="M26.8748 5.5H10.7498C9.26275 5.5 7.99067 6.41667 7.45317 7.73667L2.04234 20.6617C1.88109 21.0833 1.7915 21.5233 1.7915 22V25.5017L1.80942 25.52L1.7915 25.6667C1.7915 27.6833 3.404 29.3333 5.37484 29.3333H16.6803L14.9782 37.7117L14.9244 38.2983C14.9244 39.05 15.229 39.7467 15.7128 40.2417L17.6119 42.1667L29.419 30.085C30.064 29.425 30.4582 28.5083 30.4582 27.5V9.16667C30.4582 7.15 28.8457 5.5 26.8748 5.5ZM34.0415 5.5V27.5H41.2082V5.5H34.0415Z" fill="#00BCD4" fill-opacity="0.87"/>
</svg>
