<svg width="44" height="44" viewBox="0 0 44 44" fill="none" xmlns="http://www.w3.org/2000/svg">
<path d="M1.8335 38.5H9.16683V16.5H1.8335V38.5ZM42.1668 18.3334C42.1668 16.3167 40.5168 14.6667 38.5002 14.6667H26.9318L28.6735 6.28837L28.7285 5.70171C28.7285 4.95004 28.4168 4.25337 27.9218 3.75837L25.9785 1.83337L13.9152 13.915C13.2368 14.575 12.8335 15.4917 12.8335 16.5V34.8334C12.8335 36.85 14.4835 38.5 16.5002 38.5H33.0002C34.5218 38.5 35.8235 37.5834 36.3735 36.2634L41.9102 23.3384C42.0752 22.9167 42.1668 22.4767 42.1668 22V18.4984L42.1485 18.48L42.1668 18.3334Z" fill="#8BC34A" fill-opacity="0.87"/>
</svg>
