<?xml version="1.0" standalone="no"?>
<!DOCTYPE svg PUBLIC "-//W3C//DTD SVG 20010904//EN" "http://www.w3.org/TR/2001/REC-SVG-20010904/DTD/svg10.dtd">
<svg version="1.0" xmlns="http://www.w3.org/2000/svg"
    width="225.000000pt" height="225.000000pt" viewBox="0 0 225.000000 225.000000"
    preserveAspectRatio="xMidYMid meet">

<g transform="translate(0.000000,225.000000) scale(0.100000,-0.100000)"
fill="#cccccc" stroke="none">
<path d="M975 2239 c-167 -21 -383 -108 -515 -208 -90 -67 -221 -206 -276
-291 -217 -336 -241 -755 -64 -1115 61 -124 123 -207 234 -313 186 -178 400
-276 661 -304 324 -33 640 75 879 302 363 345 457 866 236 1315 -61 124 -123
207 -234 313 -247 237 -574 344 -921 301z m400 -134 c354 -90 637 -373 731
-730 37 -137 39 -345 6 -478 -43 -174 -132 -338 -252 -467 l-51 -55 -27 80
c-62 185 -220 334 -392 374 -58 14 -472 14 -530 0 -173 -40 -339 -198 -393
-376 -12 -40 -25 -73 -28 -73 -12 0 -122 134 -170 207 -57 88 -102 194 -131
310 -33 133 -31 341 6 478 104 397 432 690 842 755 98 15 276 4 389 -25z"/>
<path d="M992 1721 c-328 -122 -349 -574 -32 -725 59 -28 74 -31 165 -31 92 0
106 3 167 32 118 55 195 158 220 291 30 164 -64 343 -219 418 -78 38 -220 45
-301 15z"/>
</g>
</svg>
